<?xml version="1.0" encoding="UTF-8" standalone="no"?><svg xmlns="http://www.w3.org/2000/svg" xmlns:xlink="http://www.w3.org/1999/xlink" fill="#2e2e2e" height="463.6" preserveAspectRatio="xMidYMid meet" version="1" viewBox="-18.4 -12.3 535.3 463.6" width="535.3" zoomAndPan="magnify"><g id="change1_1"><path d="M185.4,36.9c28.4-49.2,99.3-49.2,127.7,0l87.7,151.9l87.7,151.9c28.4,49.2-7.1,110.6-63.9,110.6H249.3H73.9 c-56.8,0-92.3-61.5-63.9-110.6l87.7-151.9L185.4,36.9z" fill="#3a5dc4"/></g><g id="change2_1"><path d="M243.9,274.6c0,31.6-25.6,57.2-57.2,57.2s-57.2-25.6-57.2-57.2s25.6-57.2,57.2-57.2S243.9,243,243.9,274.6z M311.8,217.4c-31.6,0-57.2,25.6-57.2,57.2s25.6,57.2,57.2,57.2s57.2-25.6,57.2-57.2S343.4,217.4,311.8,217.4z" fill="#ffffff"/></g><g id="change3_1"><path d="M417.2,344c0,19.6-15.9,35.5-35.5,35.5s-35.5-15.9-35.5-35.5s15.9-35.5,35.5-35.5S417.2,324.4,417.2,344z M116.8,308.5c-19.6,0-35.5,15.9-35.5,35.5s15.9,35.5,35.5,35.5s35.5-15.9,35.5-35.5S136.4,308.5,116.8,308.5z" fill="#3a5dc4"/></g><g id="change4_1"><path d="M221.5,274.6c0,19.2-15.6,34.9-34.9,34.9s-34.9-15.6-34.9-34.9s15.6-34.9,34.9-34.9S221.5,255.4,221.5,274.6z M311.8,239.8 c-19.2,0-34.9,15.6-34.9,34.9s15.6,34.9,34.9,34.9s34.9-15.6,34.9-34.9S331.1,239.8,311.8,239.8z M254.8,361.2l35.2-27.4 c4.7-3.6,5.5-10.4,1.9-15.1c-3.6-4.7-10.4-5.5-15.1-1.9l-28.6,22.3L219,316.8c-4.7-3.6-11.5-2.7-15.1,2c-3.6,4.7-2.7,11.5,2,15.1 l35.7,27.4c1.9,1.5,4.2,2.2,6.5,2.2C250.5,363.5,252.8,362.7,254.8,361.2z" fill="inherit"/></g><g id="change4_2"><path d="M337.2,201.2H156.1c-5.9,0-10.7-4.8-10.7-10.7s4.8-10.7,10.7-10.7h181.1c5.9,0,10.7,4.8,10.7,10.7S343.2,201.2,337.2,201.2z" fill="inherit"/></g></svg>